<svg width="55" height="55" viewBox="0 0 55 55" fill="none" xmlns="http://www.w3.org/2000/svg">
<circle cx="27.5" cy="27.5" r="27.5" fill="#E3F6FF"/>
<mask id="mask0_107_460" style="mask-type:alpha" maskUnits="userSpaceOnUse" x="0" y="0" width="55" height="55">
<circle cx="27.5" cy="27.5" r="27.5" fill="#E3F6FF"/>
</mask>
<g mask="url(#mask0_107_460)">
<path d="M37.0532 27.2175C37.0723 27.0071 37.0915 26.7776 37.0915 26.548C37.0915 23.4301 34.5638 20.9244 31.4617 20.9244C30.9255 20.9244 30.4277 21.0009 29.9298 21.1348C29.3745 17.1179 25.9277 14 21.734 14C17.1574 14 13.4617 17.6917 13.4617 22.2633V22.3207C10.9532 22.6076 9 24.75 9 27.3323C9 30.125 11.2596 32.3821 14.0553 32.3821H36.7468V32.363C36.8234 32.363 36.9 32.3821 36.9574 32.3821C38.3745 32.3821 39.5426 31.2344 39.5426 29.7998C39.5426 28.4034 38.4319 27.2749 37.0532 27.2175Z" fill="#C5E1F9"/>
<path d="M22.5192 55.3358V48.8705M32.8596 43.2086V44.911C32.8596 46.996 30.983 48.3923 28.8958 48.3923H18.4788C16.3915 48.3923 14.6873 46.996 14.6873 44.911V38.4457L11.5277 36.992L16.583 26.089C16.583 26.089 17.349 24.2527 17.483 23.8892C19.4937 18.4951 24.683 14.6504 30.7915 14.6504C38.6426 14.6504 45 21.0009 45 28.8434C45 33.568 42.4915 37.7571 38.9298 40.3394V55.3358L32.8596 43.2086Z" stroke="#0561FC" stroke-width="1.88425"/>
</g>
</svg>
