<svg width="55" height="55" viewBox="0 0 55 55" fill="none" xmlns="http://www.w3.org/2000/svg">
<circle cx="27.5" cy="27.5" r="27.5" fill="#E3F6FF"/>
<mask id="mask0_107_435" style="mask-type:alpha" maskUnits="userSpaceOnUse" x="0" y="0" width="55" height="55">
<circle cx="27.5" cy="27.5" r="27.5" fill="#E3F6FF"/>
</mask>
<g mask="url(#mask0_107_435)">
<path d="M35.7097 30.5066H39.2958V56.574H7.75497V30.5066H10.628" fill="#EAF4FE"/>
<path d="M18.5133 49.4018H19.9393M12.7671 34.3444H22.8124H12.7671ZM18.5133 37.9305H19.9393H18.5133ZM21.3863 37.9305H22.8124H21.3863ZM24.2384 37.9305H25.6854H24.2384ZM27.1115 37.9305H28.5375H27.1115ZM29.9846 37.9305H31.4106H29.9846ZM12.7671 40.7825H14.2141H12.7671ZM15.6402 40.7825H17.0662H15.6402ZM18.5133 40.7825H19.9393H18.5133ZM21.3863 40.7825H22.8124H21.3863ZM24.2384 40.7825H25.6854H24.2384ZM27.1115 40.7825H28.5375H27.1115ZM29.9846 40.7825H31.4106H29.9846ZM12.7671 43.6556H14.2141H12.7671ZM15.6402 43.6556H17.0662H15.6402ZM18.5133 43.6556H19.9393H18.5133ZM21.3863 43.6556H22.8124H21.3863ZM24.2384 43.6556H25.6854H24.2384ZM27.1115 43.6556H28.5375H27.1115ZM29.9846 43.6556H31.4106H29.9846ZM12.7671 46.5287H14.2141H12.7671ZM15.6402 46.5287H17.0662H15.6402ZM18.5133 46.5287H19.9393H18.5133ZM21.3863 46.5287H22.8124H21.3863ZM24.2384 46.5287H25.6854H24.2384ZM27.1115 46.5287H28.5375H27.1115ZM29.9846 46.5287H31.4106H29.9846ZM12.7671 49.4018H14.2141H12.7671ZM15.6402 49.4018H17.0662H15.6402Z" stroke="#0561FC" stroke-width="1.73581"/>
<path d="M35.7097 22.873H39.2958V30.0452H7.75497V22.873H10.628" fill="#9AC7F7"/>
<path d="M12.7671 25.7461V20M17.0662 25.7461V20M21.3863 25.7461V20M25.6854 25.7461V20M29.9846 25.7461V20M34.2837 25.7461V20M36.4437 42.5861L38.2263 44.3687L42.5254 40.0695M45.042 41.5166H52.9272M45.042 44.3687H52.9272" stroke="#0561FC" stroke-width="1.73581"/>
<path d="M34.2837 46.5287V37.9305H42.8819M45.042 52.9878H52.9272M45.042 55.8399H52.9272M36.4437 54.0574L38.2263 55.8399L42.5254 51.5408L36.4437 54.0574Z" stroke="#0561FC" stroke-width="1.73581"/>
<path d="M34.2837 58V49.4017H42.8819" stroke="#0561FC" stroke-width="1.73581"/>
</g>
</svg>
