<svg width="55" height="55" viewBox="0 0 55 55" fill="none" xmlns="http://www.w3.org/2000/svg">
<circle cx="27.5" cy="27.5" r="27.5" fill="#E3F6FF"/>
<mask id="mask0_107_492" style="mask-type:alpha" maskUnits="userSpaceOnUse" x="0" y="0" width="55" height="55">
<circle cx="27.5" cy="27.5" r="27.5" fill="#E3F6FF"/>
</mask>
<g mask="url(#mask0_107_492)">
<path d="M15.7289 30.7559L30.427 30.6849L30.495 44.7605L15.7969 44.8315L15.7289 30.7559Z" fill="#C5E1F9"/>
<path d="M30.4405 35.3787L15.7224 30.7605L30.4204 30.6802L30.4405 35.3787Z" fill="#B6D9EF"/>
<path d="M40.7859 44.7235L30.4852 44.7732L30.4172 30.6976L40.7179 30.6479L40.7859 44.7235Z" fill="#9AC7F7"/>
<path d="M14.5465 26.0806L30.61 26.0031L30.6327 30.7016L14.5692 30.7792L14.5465 26.0806Z" fill="#C5E1F9"/>
<path d="M41.8763 30.6412L30.6319 30.6955L30.6092 25.9969L41.8536 25.9426L41.8763 30.6412Z" fill="#9AC7F7"/>
<path d="M18.3351 18.551L26.0858 18.5136L26.1216 25.9429L18.371 25.9804L18.3351 18.551Z" fill="#C5E1F9"/>
<path d="M26.0836 20.9819L18.3329 18.5322L26.0635 18.5121L26.0836 20.9819Z" fill="#B6D9EF"/>
<path d="M31.5333 25.8987L26.1119 25.9249L26.076 18.4956L31.4974 18.4694L31.5333 25.8987Z" fill="#9AC7F7"/>
<path d="M17.7045 16.0627L26.1579 16.0218L26.1698 18.4916L17.7164 18.5324L17.7045 16.0627Z" fill="#C5E1F9"/>
<path d="M32.112 18.4698L26.1886 18.4984L26.1767 16.0286L32.1001 16L32.112 18.4698Z" fill="#9AC7F7"/>
<path d="M5 26.2627H10.5017L13.9152 45.4786H45.5" stroke="#0561FC" stroke-width="1.07263"/>
<path d="M11.1844 31.0617H47.5682L44.8173 45.4786M45.5 50.2776H14.2767C12.9514 50.2776 11.8671 49.1933 11.8671 47.8681C11.8671 46.5428 12.9514 45.4586 14.2767 45.4586H17.3689" stroke="#0561FC" stroke-width="1.07263"/>
<path d="M17.3487 57.1447C18.491 57.1447 19.4169 56.2188 19.4169 55.0766C19.4169 53.9343 18.491 53.0084 17.3487 53.0084C16.2065 53.0084 15.2806 53.9343 15.2806 55.0766C15.2806 56.2188 16.2065 57.1447 17.3487 57.1447Z" stroke="#0561FC" stroke-width="1.07263"/>
<path d="M42.7491 57.1447C43.8914 57.1447 44.8173 56.2188 44.8173 55.0766C44.8173 53.9343 43.8914 53.0084 42.7491 53.0084C41.6069 53.0084 40.681 53.9343 40.681 55.0766C40.681 56.2188 41.6069 57.1447 42.7491 57.1447Z" stroke="#0561FC" stroke-width="1.07263"/>
</g>
</svg>
