<svg width="139" height="31" viewBox="0 0 139 31" fill="none" xmlns="http://www.w3.org/2000/svg">
<path d="M44.5391 19.1691L43.7571 17.4011L43.4001 19.1691L42.2441 25.0001H40.3571L42.9411 12.5051H43.1451L46.5791 19.2541L47.5991 21.5151L48.6191 19.2541L51.9851 12.5051H52.1721L54.8581 25.0001H52.9881L51.7301 19.1691L51.3561 17.4011L50.6761 19.1691L47.6501 25.0001H47.5481L44.5391 19.1691ZM59.6951 25.1701C58.9924 25.1701 58.3408 25.0058 57.7401 24.6771C57.1508 24.3371 56.6748 23.8611 56.3121 23.2491C55.9608 22.6258 55.7851 21.9004 55.7851 21.0731C55.7851 20.2571 55.9381 19.5431 56.2441 18.9311C56.5614 18.3191 57.0091 17.8431 57.5871 17.5031C58.1651 17.1631 58.8451 16.9931 59.6271 16.9931C60.0804 16.9931 60.5054 17.0724 60.9021 17.2311C61.2988 17.3898 61.6331 17.5881 61.9051 17.8261C62.1771 18.0528 62.3584 18.2794 62.4491 18.5061L62.4831 17.1971H64.2341V25.0001H62.5001L62.4661 23.6231C62.2734 24.0311 61.9221 24.3938 61.4121 24.7111C60.9021 25.0171 60.3298 25.1701 59.6951 25.1701ZM60.0011 23.6401C60.6471 23.6401 61.1911 23.4191 61.6331 22.9771C62.0751 22.5238 62.2961 21.9344 62.2961 21.2091V21.0901C62.2961 20.6028 62.1941 20.1664 61.9901 19.7811C61.7861 19.3958 61.5084 19.0954 61.1571 18.8801C60.8058 18.6648 60.4204 18.5571 60.0011 18.5571C59.2758 18.5571 58.7148 18.7951 58.3181 19.2711C57.9214 19.7358 57.7231 20.3421 57.7231 21.0901C57.7231 21.8494 57.9158 22.4671 58.3011 22.9431C58.6978 23.4078 59.2644 23.6401 60.0011 23.6401ZM66.5331 17.1971H68.3351L68.3521 18.6251C68.5674 18.1491 68.9074 17.7581 69.3721 17.4521C69.8368 17.1461 70.3808 16.9931 71.0041 16.9931C71.8088 16.9931 72.4264 17.1631 72.8571 17.5031C73.2878 17.8318 73.5768 18.2964 73.7241 18.8971C73.8714 19.4978 73.9451 20.2798 73.9451 21.2431V25.0001H72.1091V21.2941C72.1091 20.3081 72.0128 19.5998 71.8201 19.1691C71.6274 18.7271 71.2308 18.5061 70.6301 18.5061C70.2901 18.5061 69.9444 18.6138 69.5931 18.8291C69.2418 19.0331 68.9471 19.3334 68.7091 19.7301C68.4824 20.1268 68.3691 20.5914 68.3691 21.1241V25.0001H66.5331V17.1971ZM79.5924 25.1701C78.8897 25.1701 78.2381 25.0058 77.6374 24.6771C77.0481 24.3371 76.5721 23.8611 76.2094 23.2491C75.8581 22.6258 75.6824 21.9004 75.6824 21.0731C75.6824 20.2571 75.8354 19.5431 76.1414 18.9311C76.4587 18.3191 76.9064 17.8431 77.4844 17.5031C78.0624 17.1631 78.7424 16.9931 79.5244 16.9931C79.9777 16.9931 80.4027 17.0724 80.7994 17.2311C81.1961 17.3898 81.5304 17.5881 81.8024 17.8261C82.0744 18.0528 82.2557 18.2794 82.3464 18.5061L82.3804 17.1971H84.1314V25.0001H82.3974L82.3634 23.6231C82.1707 24.0311 81.8194 24.3938 81.3094 24.7111C80.7994 25.0171 80.2271 25.1701 79.5924 25.1701ZM79.8984 23.6401C80.5444 23.6401 81.0884 23.4191 81.5304 22.9771C81.9724 22.5238 82.1934 21.9344 82.1934 21.2091V21.0901C82.1934 20.6028 82.0914 20.1664 81.8874 19.7811C81.6834 19.3958 81.4057 19.0954 81.0544 18.8801C80.7031 18.6648 80.3177 18.5571 79.8984 18.5571C79.1731 18.5571 78.6121 18.7951 78.2154 19.2711C77.8187 19.7358 77.6204 20.3421 77.6204 21.0901C77.6204 21.8494 77.8131 22.4671 78.1984 22.9431C78.5951 23.4078 79.1617 23.6401 79.8984 23.6401ZM90.2214 29.0801C89.6434 29.0801 89.0711 29.0008 88.5044 28.8421C87.9491 28.6834 87.5524 28.5361 87.3144 28.4001L87.7224 26.7001C88.4704 27.1874 89.2864 27.4311 90.1704 27.4311C90.8504 27.4311 91.4227 27.2668 91.8874 26.9381C92.3521 26.6094 92.5901 25.9691 92.6014 25.0171V23.6231C92.3634 24.0651 91.9781 24.4334 91.4454 24.7281C90.9127 25.0228 90.3234 25.1701 89.6774 25.1701C88.9974 25.1701 88.3741 25.0058 87.8074 24.6771C87.2407 24.3371 86.7931 23.8554 86.4644 23.2321C86.1357 22.6088 85.9714 21.8834 85.9714 21.0561C85.9714 20.2628 86.1244 19.5601 86.4304 18.9481C86.7477 18.3248 87.1954 17.8431 87.7734 17.5031C88.3514 17.1631 89.0257 16.9931 89.7964 16.9931C90.2497 16.9931 90.6747 17.0724 91.0714 17.2311C91.4681 17.3898 91.8024 17.5881 92.0744 17.8261C92.3577 18.0528 92.5447 18.2794 92.6354 18.5061L92.6694 17.1971H94.4034V24.9491C94.4034 26.2751 94.0634 27.2951 93.3834 28.0091C92.7034 28.7231 91.6494 29.0801 90.2214 29.0801ZM90.1874 23.6231C90.8334 23.6231 91.3774 23.4021 91.8194 22.9601C92.2614 22.5068 92.4824 21.9174 92.4824 21.1921V21.0731C92.4824 20.5858 92.3804 20.1494 92.1764 19.7641C91.9724 19.3788 91.6947 19.0784 91.3434 18.8631C90.9921 18.6478 90.6067 18.5401 90.1874 18.5401C89.4621 18.5401 88.9011 18.7781 88.5044 19.2541C88.1077 19.7188 87.9094 20.3251 87.9094 21.0731C87.9094 21.8324 88.1021 22.4501 88.4874 22.9261C88.8841 23.3908 89.4507 23.6231 90.1874 23.6231ZM100.276 25.1701C99.3462 25.1701 98.5699 24.9888 97.9466 24.6261C97.3232 24.2521 96.8642 23.7591 96.5696 23.1471C96.2749 22.5238 96.1276 21.8438 96.1276 21.1071C96.1276 20.2798 96.2976 19.5544 96.6376 18.9311C96.9889 18.3078 97.4706 17.8318 98.0826 17.5031C98.6946 17.1631 99.3859 16.9931 100.157 16.9931C101.358 16.9931 102.248 17.3274 102.826 17.9961C103.415 18.6534 103.71 19.5828 103.71 20.7841C103.71 21.0901 103.693 21.4074 103.659 21.7361H98.0486C98.1732 22.4274 98.4169 22.9261 98.7796 23.2321C99.1536 23.5381 99.6692 23.6911 100.327 23.6911C100.871 23.6911 101.318 23.6458 101.67 23.5551C102.021 23.4644 102.344 23.3398 102.639 23.1811L103.2 24.4901C102.916 24.6714 102.531 24.8301 102.044 24.9661C101.556 25.1021 100.967 25.1701 100.276 25.1701ZM101.925 20.4611C101.936 19.7584 101.783 19.2654 101.466 18.9821C101.148 18.6874 100.695 18.5401 100.106 18.5401C98.9156 18.5401 98.2299 19.1804 98.0486 20.4611H101.925ZM105.413 17.1971H107.249V18.7271C107.431 18.2058 107.725 17.7864 108.133 17.4691C108.541 17.1518 109.006 16.9931 109.527 16.9931C109.89 16.9931 110.139 17.0271 110.275 17.0951L110.02 18.9481C109.918 18.8801 109.697 18.8461 109.357 18.8461C108.825 18.8461 108.337 19.0161 107.895 19.3561C107.465 19.6961 107.249 20.2401 107.249 20.9881V25.0001H105.413V17.1971Z" fill="black"/>
<path d="M115.52 12.5051H118.274C119.826 12.5051 120.96 12.8394 121.674 13.5081C122.399 14.1654 122.762 15.0721 122.762 16.2281C122.762 17.5654 122.371 18.5911 121.589 19.3051C120.807 20.0191 119.645 20.3761 118.104 20.3761H117.441V25.0001H115.52V12.5051ZM118.155 18.6931C119.152 18.6931 119.849 18.4721 120.246 18.0301C120.642 17.5881 120.841 17.0554 120.841 16.4321C120.841 15.7634 120.648 15.2194 120.263 14.8001C119.877 14.3808 119.231 14.1711 118.325 14.1711H117.441V18.6931H118.155ZM124.194 17.1971H126.03V18.7271C126.212 18.2058 126.506 17.7864 126.914 17.4691C127.322 17.1518 127.787 16.9931 128.308 16.9931C128.671 16.9931 128.92 17.0271 129.056 17.0951L128.801 18.9481C128.699 18.8801 128.478 18.8461 128.138 18.8461C127.606 18.8461 127.118 19.0161 126.676 19.3561C126.246 19.6961 126.03 20.2401 126.03 20.9881V25.0001H124.194V17.1971ZM133.823 25.1701C133.018 25.1701 132.304 24.9888 131.681 24.6261C131.057 24.2634 130.576 23.7704 130.236 23.1471C129.896 22.5238 129.726 21.8324 129.726 21.0731C129.726 20.3251 129.89 19.6394 130.219 19.0161C130.559 18.3928 131.04 17.8998 131.664 17.5371C132.287 17.1744 133.007 16.9931 133.823 16.9931C134.639 16.9931 135.353 17.1744 135.965 17.5371C136.588 17.8998 137.064 18.3928 137.393 19.0161C137.733 19.6394 137.903 20.3251 137.903 21.0731C137.903 21.8324 137.733 22.5238 137.393 23.1471C137.053 23.7704 136.571 24.2634 135.948 24.6261C135.336 24.9888 134.627 25.1701 133.823 25.1701ZM133.874 23.6741C134.531 23.6741 135.047 23.4304 135.421 22.9431C135.806 22.4558 135.999 21.8438 135.999 21.1071C135.999 20.3704 135.795 19.7528 135.387 19.2541C134.979 18.7441 134.44 18.4891 133.772 18.4891C133.126 18.4891 132.604 18.7384 132.208 19.2371C131.822 19.7358 131.63 20.3591 131.63 21.1071C131.63 21.8324 131.839 22.4444 132.259 22.9431C132.678 23.4304 133.216 23.6741 133.874 23.6741Z" fill="#0561FC"/>
<path d="M28.4167 15.5L23.25 5.16666L18.0833 15.5L23.25 25.8333L28.4167 15.5Z" stroke="#0561FC" stroke-width="3" stroke-linecap="round" stroke-linejoin="round"/>
<path d="M18.0833 5.16666L12.9167 15.5L18.0833 25.8333" stroke="#758892" stroke-width="3" stroke-linecap="round" stroke-linejoin="round"/>
<path d="M7.75 5.16666L2.58333 15.5L7.75 25.8333" stroke="#758892" stroke-width="3" stroke-linecap="round" stroke-linejoin="round"/>
<path d="M12.9167 5.16666L7.75 15.5L12.9167 25.8333" stroke="#758892" stroke-width="3" stroke-linecap="round" stroke-linejoin="round"/>
</svg>
